# Blender v2.75 (sub 0) OBJ File: 'cliff.blend'
# www.blender.org
mtllib cliff.mtl
o cliff_Cube
v -1.788750 6.928607 -1.218958
v 0.119087 6.928607 -2.478754
v 1.502804 6.928607 -1.435435
v 3.354001 6.928607 0.555391
v 4.931810 6.928607 4.265472
v 4.931805 6.928607 13.928787
v -4.636713 6.928607 13.928782
v -4.636711 6.928607 4.265469
v -3.513291 6.928607 1.398901
v 3.354001 6.928607 13.928786
v 1.502804 6.928607 13.928784
v 0.147546 6.928607 13.928784
v -1.788750 6.928607 13.928783
v -3.513291 6.928607 13.928782
v -0.284468 6.928607 -1.678577
v -0.284471 6.928607 13.928783
v 0.609169 6.928607 13.928784
v 0.609169 6.928607 -2.470879
v 0.119087 -1.568593 6.735001
v 1.502804 -1.568593 7.778319
v 3.354001 -1.568593 9.769145
v 4.931810 -1.568593 13.479227
v 4.931805 -1.568593 13.928787
v 0.609169 -1.568593 6.742875
v -0.295746 6.503748 -1.826338
v 0.120141 6.503748 -2.632994
v 5.079920 6.503748 13.928787
v 5.079926 6.503748 4.317315
v 0.625198 6.503748 -2.624879
v 0.120141 6.503748 -2.632994
v -0.295746 6.503748 -1.826338
v -3.623232 6.503748 1.363150
v 1.556589 6.503748 -1.564347
v 3.453904 6.503748 0.493865
v -1.845994 6.503748 -1.334702
v 4.931805 6.431350 13.928787
v 0.609169 6.431350 -2.470879
v 1.502804 6.431350 -1.435435
v 3.354001 6.431350 0.555391
v 4.931810 6.431350 4.265472
v 0.119087 6.431350 -2.478754
v 4.931805 5.098026 13.928787
v 4.931805 3.764702 13.928787
v 4.931805 2.431379 13.928787
v 4.931805 1.098055 13.928787
v 4.931805 -0.235269 13.928787
v 0.609169 5.098026 -1.482302
v 0.609169 3.764702 0.247797
v 0.609169 2.431379 2.734950
v 0.609169 1.098055 5.175826
v 0.609169 -0.235269 6.742875
v 1.502804 5.098026 -0.446858
v 1.502804 3.764702 1.283241
v 1.502804 2.431379 3.770394
v 1.502804 1.098055 6.211270
v 1.502804 -0.235269 7.778319
v 3.354001 5.098026 1.543968
v 3.354001 3.764702 3.274067
v 3.354001 2.431379 5.761220
v 3.354001 1.098055 8.202096
v 3.354001 -0.235269 9.769145
v 4.931810 -0.235269 13.479227
v 4.931810 1.098055 11.912178
v 4.931810 2.431379 9.471302
v 4.931810 3.764702 6.984149
v 4.931810 5.098026 5.254049
v 0.119087 -0.235269 6.735001
v 0.119087 1.098055 5.167952
v 0.119087 2.431379 2.727076
v 0.119087 3.764702 0.239923
v 0.119087 5.098026 -1.490176
v 2.431639 6.928607 13.928786
v 2.431639 6.928607 -0.049010
v 2.431639 -1.568593 9.164744
v 2.508483 6.503748 -0.144229
v 2.431639 6.431350 -0.049010
v 2.431639 5.098026 0.939567
v 2.431639 3.764702 2.669667
v 2.431639 2.431379 5.156819
v 2.431639 1.098055 7.597695
v 2.431639 -0.235269 9.164744
v -2.317355 6.928607 0.702433
v -2.317355 6.928607 13.928782
v -2.400947 6.503748 0.626685
v -2.400947 6.503748 0.626685
v -1.845994 6.503748 -1.334702
v -3.623232 6.503748 1.363150
v 0.820222 3.449806 1.079744
v 0.820222 2.746275 2.392094
v 1.291750 3.449806 1.626098
v 1.291750 2.746275 2.938448
v 1.038469 3.106839 1.233376
v 1.038469 2.615697 2.149540
v 1.367648 3.106839 1.614791
v 1.367648 2.615697 2.530955
v 3.220288 4.715486 1.564407
v 3.234851 4.261422 2.216164
v 2.784388 4.587866 1.445863
v 2.758349 4.261422 1.903924
v 3.296689 4.602332 1.447813
v 3.311252 4.148268 2.099570
v 2.860789 4.474712 1.329269
v 2.834750 4.148268 1.787330
vt 0.631198 0.883601
vt 0.586543 0.939377
vt 0.001778 0.947427
vt 0.001010 0.891612
vt 0.453484 0.993648
vt 0.002500 0.999856
vt 0.754562 0.787753
vt 0.713161 0.855621
vt 0.000661 0.868676
vt 0.000168 0.787866
vt 0.787396 0.745740
vt 0.786331 0.766911
vt 0.000145 0.768798
vt 0.000144 0.744271
vt 0.681198 0.654605
vt 0.748401 0.702449
vt 0.000236 0.699930
vt 0.000307 0.656752
vt 0.476356 0.534887
vt 0.645173 0.612163
vt 0.000443 0.608753
vt 0.001556 0.526401
vt 0.068668 0.106224
vt 0.047680 0.104967
vt 0.049482 0.042420
vt 0.070571 0.043028
vt 0.487527 0.056820
vt 0.466252 0.069326
vt 0.445474 0.007378
vt 0.465304 0.000144
vt 0.397605 0.084604
vt 0.384692 0.022252
vt 0.319587 0.095118
vt 0.267204 0.107003
vt 0.260836 0.042892
vt 0.309199 0.035628
vt 0.774088 0.801263
vt 0.727381 0.869665
vt 0.477508 0.512836
vt 0.657512 0.594122
vt 0.644633 0.901559
vt 0.697371 0.637633
vt 0.765978 0.688804
vt 0.808525 0.742253
vt 0.808041 0.771067
vt 0.001963 0.504140
vt 0.666285 0.503852
vt 0.456099 0.503852
vt 0.460971 0.496729
vt 0.665829 0.497245
vt 0.717490 0.483433
vt 0.715369 0.477173
vt 0.867214 0.462893
vt 0.797995 0.475851
vt 0.793763 0.469682
vt 0.861153 0.457091
vt 0.883712 0.445331
vt 0.877979 0.439923
vt 0.000144 0.420149
vt 0.001606 0.412190
vt 0.422119 0.424891
vt 0.616398 0.431410
vt 0.350853 0.346056
vt 0.545714 0.359340
vt 0.243728 0.260337
vt 0.440922 0.270891
vt 0.136310 0.176916
vt 0.336014 0.183111
vt 0.667932 0.413570
vt 0.597093 0.339601
vt 0.632697 0.400342
vt 0.616489 0.381036
vt 0.491415 0.251458
vt 0.387234 0.164155
vt 0.746908 0.406840
vt 0.808560 0.396350
vt 0.674350 0.335594
vt 0.737544 0.326904
vt 0.665617 0.313039
vt 0.699269 0.308656
vt 0.637456 0.239957
vt 0.572673 0.248100
vt 0.469581 0.158052
vt 0.536074 0.150018
vt 0.825081 0.381168
vt 0.753445 0.310266
vt 0.653259 0.222547
vt 0.553529 0.133277
vt 0.012770 0.349455
vt 0.023781 0.286871
vt 0.034117 0.225413
vt 0.042361 0.165637
vt 0.600640 0.955618
vt 0.906594 0.567852
vt 0.872138 0.572634
vt 0.867866 0.556242
vt 0.891920 0.552904
vt 0.612124 0.266939
vt 0.646143 0.262584
vt 0.829623 0.523871
vt 0.853676 0.520532
vt 0.857948 0.504140
vt 0.912730 0.550510
vt 0.814949 0.508922
vt 0.849405 0.504140
vt 0.863595 0.572634
vt 0.808813 0.526264
vt 0.845530 0.573683
vt 0.865162 0.592424
vt 0.860430 0.599670
vt 0.840798 0.580929
vt 0.591984 0.388892
vt 0.616924 0.411935
vt 0.844727 0.615959
vt 0.815391 0.591346
vt 0.867008 0.605292
vt 0.851306 0.621582
vt 0.812108 0.583339
vt 0.837515 0.572922
vt 0.838148 0.621582
vt 0.808813 0.596969
vn 0.000000 1.000000 0.000000
vn 1.000000 0.000000 0.000000
vn 0.016100 0.000000 -0.999900
vn 0.757000 0.000000 -0.653400
vn 0.548100 0.000000 -0.836400
vn 0.920200 0.000000 -0.391400
vn -0.283200 0.304800 -0.909300
vn 0.887700 0.263400 -0.377500
vn -0.940700 0.215100 -0.262500
vn 0.534900 0.259600 -0.804100
vn 0.726100 0.270200 -0.632300
vn -0.877900 0.169700 -0.447700
vn 0.015100 0.341200 -0.939900
vn 0.944300 0.329200 0.000000
vn 0.487200 -0.848400 -0.207200
vn 0.296600 -0.844600 -0.445800
vn 0.391500 -0.854700 -0.340900
vn 0.006800 -0.905200 -0.424900
vn 0.439100 -0.898400 0.000000
vn 0.883800 -0.278700 -0.375900
vn 0.820500 -0.452800 -0.348900
vn 0.743300 -0.589600 -0.316100
vn 0.748100 -0.582400 -0.318100
vn 0.836000 -0.417900 -0.355500
vn 0.465800 -0.527000 -0.710800
vn -0.240000 -0.772100 -0.588500
vn 0.295800 -0.841900 -0.451300
vn 0.299700 -0.837300 -0.457400
vn 0.390900 -0.701000 -0.596500
vn 0.681300 -0.436000 -0.588000
vn 0.577500 -0.646700 -0.498400
vn 0.480200 -0.773100 -0.414400
vn 0.485600 -0.767200 -0.419100
vn 0.600400 -0.609000 -0.518200
vn 0.012900 -0.595500 -0.803200
vn 0.009800 -0.792000 -0.610400
vn 0.007600 -0.881300 -0.472500
vn 0.007700 -0.877600 -0.479400
vn 0.010400 -0.761600 -0.648000
vn 0.695200 -0.547400 -0.465800
vn 0.581900 -0.713700 -0.389900
vn 0.576300 -0.720200 -0.386100
vn 0.673500 -0.585500 -0.451200
vn 0.768000 -0.381500 -0.514500
vn 0.438100 -0.849600 -0.293600
vn 0.801100 0.264700 -0.536800
vn 0.830800 0.000000 -0.556600
vn -0.496900 0.223200 -0.838600
vn 0.743900 0.185800 -0.642000
vn -0.724900 -0.607100 -0.325500
vn -0.283200 -0.927400 0.244400
vn 0.970900 0.211100 0.113200
vn -0.904400 -0.321500 -0.280600
vn 0.905900 -0.336100 -0.257800
vn 0.464200 -0.362900 -0.808000
vn 0.284100 -0.855200 -0.433500
vn 0.359300 -0.765100 -0.534400
vn -0.017400 0.711800 -0.702200
vn -0.345400 -0.776400 0.527100
vn 0.900500 0.366000 0.234900
usemtl Material
s off
f 82/1/1 9/2/1 14/3/1 83/4/1
f 9/2/1 8/5/1 7/6/1 14/3/1
f 15/7/1 1/8/1 13/9/1 16/10/1
f 18/11/1 2/12/1 12/13/1 17/14/1
f 73/15/1 3/16/1 11/17/1 72/18/1
f 5/19/1 4/20/1 10/21/1 6/22/1
f 2/12/1 15/7/1 16/10/1 12/13/1
f 3/16/1 18/11/1 17/14/1 11/17/1
f 62/23/2 46/24/2 23/25/2 22/26/2
f 67/27/3 51/28/3 24/29/3 19/30/3
f 51/28/4 56/31/4 20/32/4 24/29/4
f 81/33/5 61/34/5 21/35/5 74/36/5
f 61/34/6 62/23/6 22/26/6 21/35/6
f 1/8/7 15/7/7 31/37/7 35/38/7
f 4/20/8 5/19/8 28/39/8 34/40/8
f 82/1/9 1/8/9 35/38/9 84/41/9
f 73/15/10 4/20/10 34/40/10 75/42/10
f 18/11/11 3/16/11 33/43/11 29/44/11
f 15/7/12 2/12/12 30/45/12 31/37/12
f 2/12/13 18/11/13 29/44/13 30/45/13
f 5/19/14 6/22/14 27/46/14 28/39/14
f 34/47/15 28/48/15 40/49/15 39/50/15
f 75/51/16 34/47/16 39/50/16 76/52/16
f 29/53/17 33/54/17 38/55/17 37/56/17
f 30/57/18 29/53/18 37/56/18 41/58/18
f 28/48/19 27/59/19 36/60/19 40/49/19
f 39/50/20 40/49/20 66/61/20 57/62/20
f 57/62/21 66/61/21 65/63/21 58/64/21
f 58/64/22 65/63/22 64/65/22 59/66/22
f 59/66/23 64/65/23 63/67/23 60/68/23
f 60/68/24 63/67/24 62/23/24 61/34/24
f 76/52/25 39/50/25 57/62/25 77/69/25
f 78/70/26 77/69/26 98/71/26 99/72/26
f 78/70/27 58/64/27 59/66/27 79/73/27
f 79/73/28 59/66/28 60/68/28 80/74/28
f 80/74/29 60/68/29 61/34/29 81/33/29
f 37/56/30 38/55/30 52/75/30 47/76/30
f 47/76/31 52/75/31 53/77/31 48/78/31
f 48/78/32 53/77/32 90/79/32 88/80/32
f 49/81/33 54/82/33 55/83/33 50/84/33
f 50/84/34 55/83/34 56/31/34 51/28/34
f 41/58/35 37/56/35 47/76/35 71/85/35
f 71/85/36 47/76/36 48/78/36 70/86/36
f 70/86/37 48/78/37 49/81/37 69/87/37
f 69/87/38 49/81/38 50/84/38 68/88/38
f 68/88/39 50/84/39 51/28/39 67/27/39
f 40/49/2 36/60/2 42/89/2 66/61/2
f 66/61/2 42/89/2 43/90/2 65/63/2
f 65/63/2 43/90/2 44/91/2 64/65/2
f 64/65/2 44/91/2 45/92/2 63/67/2
f 63/67/2 45/92/2 46/24/2 62/23/2
f 55/83/40 80/74/40 81/33/40 56/31/40
f 54/82/41 79/73/41 80/74/41 55/83/41
f 53/77/42 78/70/42 79/73/42 54/82/42
f 52/75/43 77/69/43 78/70/43 53/77/43
f 38/55/44 76/52/44 77/69/44 52/75/44
f 33/54/45 75/51/45 76/52/45 38/55/45
f 3/16/46 73/15/46 75/42/46 33/43/46
f 56/31/47 81/33/47 74/36/47 20/32/47
f 4/20/1 73/15/1 72/18/1 10/21/1
f 9/2/48 82/1/48 84/41/48 32/93/48
f 1/8/1 82/1/1 83/4/1 13/9/1
f 88/94/49 90/95/49 94/96/49 92/97/49
f 53/77/32 54/82/32 91/98/32 90/79/32
f 54/82/32 49/81/32 89/99/32 91/98/32
f 49/81/32 48/78/32 88/80/32 89/99/32
f 92/97/32 94/96/32 95/100/32 93/101/32
f 89/102/50 88/103/50 92/97/50 93/101/50
f 91/104/51 89/105/51 93/101/51 95/100/51
f 90/106/52 91/107/52 95/100/52 94/96/52
f 99/108/53 98/109/53 102/110/53 103/111/53
f 57/62/54 58/64/54 97/112/54 96/113/54
f 77/69/55 57/62/55 96/113/55 98/71/55
f 58/64/56 78/70/56 99/72/56 97/112/56
f 102/110/57 100/114/57 101/115/57 103/111/57
f 98/116/58 96/117/58 100/114/58 102/110/58
f 97/118/59 99/119/59 103/111/59 101/115/59
f 96/120/60 97/121/60 101/115/60 100/114/60
l 86 85
l 26 25
l 85 87
l 25 86
